# File created by Blade
# Date/Time:  Tue Jan 27 17:27:44 2015
#---------------------------------------------------------
:version 1.10
:name HOM
:units
  mass 1.0
  length 1.000000
  angle deg
:documentation
     Acclaim Skeleton File
:root
   axis xyz
   order TX TY TZ RX RY RZ
   position 0.000000 0.000000 0.000000
   orientation 0 0 0
:bonedata
   begin
      id 1
      name Spine_dum
      direction 0.000000 1.000000 0.000000
      length 7.539951
      axis 0.0 0.0 0.0 xyz
   end
   begin
      id 2
      name LeftUpLeg_dum
      direction 1.000000 0.000000 0.000000
      length 3.345476
      axis 0.0 0.0 0.0 xyz
   end
   begin
      id 3
      name RightUpLeg_dum
      direction -1.000000 0.000000 0.000000
      length 3.345476
      axis 0.0 0.0 0.0 xyz
   end
   begin
      id 4
      name Spine
      direction 0.000000 1.000000 0.000000
      length 0.000000
      axis 0.0 0.0 0.0 xyz
      dof rx ry rz
   end
   begin
      id 5
      name Spine_dum1
      direction 0.000000 1.000000 0.000000
      length 15.093809
      axis 0.0 0.0 0.0 xyz
   end
   begin
      id 6
      name Spine_dum2
      direction 0.000000 1.000000 0.000000
      length 9.738928
      axis 0.0 0.0 0.0 xyz
   end
   begin
      id 7
      name Spine_dum3
      direction 0.000000 1.000000 0.000000
      length 9.738928
      axis 0.0 0.0 0.0 xyz
   end
   begin
      id 8
      name Head
      direction 0.000000 1.000000 0.000000
      length 4.527550
      axis 0.0 0.0 0.0 xyz
      dof rx ry rz
   end
   begin
      id 9
      name LeftShoulder
      direction 1.000000 0.000000 0.000000
      length 7.084015
      axis 0.0 0.0 -90.0 xyz
      dof rx ry rz
   end
   begin
      id 10
      name LeftArm
      direction 1.000000 0.000000 0.000000
      length 10.259319
      axis 0.0 0.0 -90.0 xyz
      dof rx ry rz
   end
   begin
      id 11
      name LeftForeArm
      direction 1.000000 0.000000 0.000000
      length 9.896984
      axis 0.0 0.0 -90.0 xyz
      dof ry rz rx
   end
   begin
      id 12
      name LeftHand
      direction 0.000000 0.000000 0.000000
      length 0.000000
      axis 0.0 0.0 -90.0 xyz
      dof rx ry rz
   end
   begin
      id 13
      name LeftHand_dum1
      direction 0.000000 0.000000 0.000000
      length 0.000000
      axis 0.0 0.0 -90.0 xyz
   end
   begin
      id 14
      name LeftHand_dum2
      direction 1.000000 0.000000 0.000000
      length 3.937000
      axis 0.0 0.0 -90.0 xyz
   end
   begin
      id 15
      name LeftHandThumb1
      direction 0.000000 0.000000 1.000000
      length 3.937000
      axis 0.0 0.0 -90.0 xyz
      dof rx rz ry
   end
   begin
      id 16
      name RightShoulder
      direction -1.000000 0.000000 0.000000
      length 7.084015
      axis 0.0 0.0 90.0 xyz
      dof rx ry rz
   end
   begin
      id 17
      name RightArm
      direction -1.000000 0.000000 0.000000
      length 10.259319
      axis 0.0 0.0 90.0 xyz
      dof rx ry rz
   end
   begin
      id 18
      name RightForeArm
      direction -1.000000 0.000000 0.000000
      length 9.896984
      axis 0.0 0.0 90.0 xyz
      dof ry rz rx
   end
   begin
      id 19
      name RightHand
      direction 0.000000 0.000000 0.000000
      length 0.000000
      axis 0.0 0.0 90.0 xyz
      dof rx ry rz
   end
   begin
      id 20
      name RightHand_dum1
      direction 0.000000 0.000000 0.000000
      length 0.000000
      axis 0.0 0.0 90.0 xyz
   end
   begin
      id 21
      name RightHand_dum2
      direction -1.000000 0.000000 0.000000
      length 3.937000
      axis 0.0 0.0 90.0 xyz
   end
   begin
      id 22
      name RightHandThumb1
      direction 0.000000 0.000000 1.000000
      length 3.937000
      axis 0.0 0.0 90.0 xyz
      dof rx rz ry
   end
   begin
      id 23
      name LeftUpLeg
      direction 0.000000 -1.000000 0.000000
      length 19.114733
      axis 0.0 0.0 0.0 xyz
      dof rx ry rz
   end
   begin
      id 24
      name LeftLeg
      direction 0.000000 -1.000000 0.000000
      length 16.045604
      axis 0.0 0.0 0.0 xyz
      dof rx ry rz
   end
   begin
      id 25
      name LeftFoot
      direction 0.000000 -0.258819 0.965926
      length 5.543155
      axis 15.0 0.0 0.0 xyz
      dof rx ry rz
   end
   begin
      id 26
      name LeftToeBase
      direction 0.000000 0.000000 1.000000
      length 2.952750
      axis 0.0 0.0 0.0 xyz
      dof rx ry rz
   end
   begin
      id 27
      name RightUpLeg
      direction 0.000000 -1.000000 0.000000
      length 19.114733
      axis 0.0 0.0 0.0 xyz
      dof rx ry rz
   end
   begin
      id 28
      name RightLeg
      direction 0.000000 -1.000000 0.000000
      length 16.045604
      axis 0.0 0.0 0.0 xyz
      dof rx ry rz
   end
   begin
      id 29
      name RightFoot
      direction 0.000000 -0.258819 0.965926
      length 5.543155
      axis 15.0 0.0 0.0 xyz
      dof rx ry rz
   end
   begin
      id 30
      name RightToeBase
      direction 0.000000 0.000000 1.000000
      length 2.952750
      axis 0.0 0.0 0.0 xyz
      dof rx ry rz
   end
:hierarchy
   begin
      root Spine_dum LeftUpLeg_dum RightUpLeg_dum
      Spine_dum Spine
      LeftUpLeg_dum LeftUpLeg
      RightUpLeg_dum RightUpLeg
      Spine Spine_dum1 Spine_dum2 Spine_dum3
      Spine_dum1 Head
      Spine_dum2 LeftShoulder
      Spine_dum3 RightShoulder
      LeftShoulder LeftArm
      LeftArm LeftForeArm
      LeftForeArm LeftHand
      LeftHand LeftHand_dum1 LeftHand_dum2
      LeftHand_dum1 LeftHandThumb1
      RightShoulder RightArm
      RightArm RightForeArm
      RightForeArm RightHand
      RightHand RightHand_dum1 RightHand_dum2
      RightHand_dum1 RightHandThumb1
      LeftUpLeg LeftLeg
      LeftLeg LeftFoot
      LeftFoot LeftToeBase
      RightUpLeg RightLeg
      RightLeg RightFoot
      RightFoot RightToeBase
   end

# File created by Blade
# Date/Time:  Tue Jan 27 17:27:32 2015
# Frame Rate: 120.000 fps
#------------------------------------------------------
:FULLY-SPECIFIED
:DEGREES
382
root 4.380448 36.874509 0.184388 2.106012 14.395954 -0.775235
Spine 3.874881 4.796147 -2.059233
Head 9.646805 -8.934420 5.850178
LeftShoulder -4.886622 -9.470032 9.618195
LeftArm -2.096178 -21.364482 -45.669851
LeftForeArm 3.753797 -0.000000 94.675934
LeftHand -16.148617 -0.000000 29.636261
LeftHandThumb1 -26.253704 0.000000 33.147579
RightShoulder -10.147500 -20.363000 1.091519
RightArm 16.766172 -26.924923 58.023411
RightForeArm 178.678773 -0.000000 30.929387
RightHand 1.477226 0.000000 -1.899110
RightHandThumb1 -24.326973 -0.000000 -32.862282
LeftUpLeg -3.327610 -3.828752 -3.004176
LeftLeg 7.932044 -0.000000 -0.000000
LeftFoot -14.763469 -1.867309 -11.829535
LeftToeBase 14.277035 -0.000000 -0.000000
RightUpLeg -22.032184 8.675609 -5.986363
RightLeg 93.535476 -0.000000 -0.000000
RightFoot -4.250508 1.769002 6.292352
RightToeBase -0.698385 -0.000000 0.000000
383
root 4.386930 36.874004 0.180127 2.091251 15.001337 -0.745589
Spine 3.979877 4.689712 -1.945809
Head 9.579212 -9.065563 5.807994
LeftShoulder -4.800540 -9.541466 9.601271
LeftArm -1.707396 -20.939017 -45.938301
LeftForeArm 3.852017 -0.000000 94.679010
LeftHand -16.088772 -0.000000 29.793096
LeftHandThumb1 -26.253704 0.000000 33.147579
RightShoulder -10.173003 -20.425347 1.089020
RightArm 16.600217 -26.890601 58.029357
RightForeArm 178.492255 0.000000 30.781402
RightHand 1.446422 0.000000 -2.089624
RightHandThumb1 -24.326973 -0.000000 -32.862282
LeftUpLeg -3.328980 -4.007963 -3.014906
LeftLeg 7.917745 -0.000000 -0.000000
LeftFoot -14.613106 -2.266114 -11.757087
LeftToeBase 14.388194 -0.000000 -0.000000
RightUpLeg -22.040270 8.878083 -5.976969
RightLeg 93.912785 -0.000000 -0.000000
RightFoot -4.290271 1.775823 6.219283
RightToeBase -0.777284 -0.000000 0.000000
384
root 4.393793 36.874905 0.173251 2.074504 15.615573 -0.716047
Spine 4.095465 4.594503 -1.817030
Head 9.510261 -9.215957 5.778380
LeftShoulder -4.660361 -9.611164 9.572486
LeftArm -1.375948 -20.586375 -46.214656
LeftForeArm 3.974490 -0.000000 94.720592
LeftHand -16.080038 -0.000000 29.747148
LeftHandThumb1 -26.253704 0.000000 33.147579
RightShoulder -10.237310 -20.474150 1.101179
RightArm 16.466731 -26.891944 58.001764
RightForeArm 178.627008 0.000000 30.631159
RightHand 1.465327 -0.000000 -2.259749
RightHandThumb1 -24.326973 -0.000000 -32.862282
LeftUpLeg -3.335828 -4.298163 -3.026516
LeftLeg 7.894996 -0.000000 -0.000000
LeftFoot -14.535110 -2.569606 -11.991240
LeftToeBase 14.833706 -0.000000 -0.000000
RightUpLeg -22.038574 9.038308 -5.971811
RightLeg 94.255026 -0.000000 -0.000000
RightFoot -4.302497 1.775665 6.174665
RightToeBase -0.909333 -0.000000 0.000000
385
root 4.398022 36.875846 0.169860 2.103026 16.277990 -0.678782
Spine 4.120318 4.398756 -1.727097
Head 9.515051 -9.319282 5.785514
LeftShoulder -4.573413 -9.705536 9.585354
LeftArm -1.117871 -20.170670 -46.465169
LeftForeArm 4.121445 -0.000000 94.770288
LeftHand -16.064650 0.000000 29.795613
LeftHandThumb1 -26.253704 0.000000 33.147579
RightShoulder -10.182966 -20.517615 1.083009
RightArm 16.264573 -26.908447 58.028942
RightForeArm 178.492536 0.000000 30.459944
RightHand 1.467647 -0.000000 -2.289038
RightHandThumb1 -24.326973 -0.000000 -32.862282
LeftUpLeg -3.378968 -4.614717 -3.035735
LeftLeg 7.873447 -0.000000 -0.000000
LeftFoot -14.388714 -2.876852 -11.975787
LeftToeBase 14.904853 -0.000000 -0.000000
RightUpLeg -22.052404 9.146613 -5.961493
RightLeg 94.557276 -0.000000 -0.000000
RightFoot -4.321001 1.747551 6.077882
RightToeBase -0.265296 -0.000000 0.000000
386
root 4.404899 36.877117 0.168735 2.095205 16.870146 -0.656251
Spine 4.188632 4.290688 -1.603121
Head 9.490959 -9.465929 5.743981
LeftShoulder -4.505698 -9.739159 9.557276
LeftArm -0.769632 -19.790036 -46.707462
LeftForeArm 4.229420 -0.000000 94.801474
LeftHand -16.017358 -0.000000 29.755781
LeftHandThumb1 -26.253704 0.000000 33.147579
RightShoulder -10.176508 -20.570415 1.069636
RightArm 16.091974 -26.905814 58.047357
RightForeArm 178.426525 -0.000000 30.327742
RightHand 1.522680 -0.000000 -2.309614
RightHandThumb1 -24.326973 -0.000000 -32.862282
LeftUpLeg -3.361729 -4.977044 -3.045024
LeftLeg 7.812465 -0.000000 -0.000000
LeftFoot -14.250108 -3.047224 -11.906257
LeftToeBase 14.843741 -0.000000 -0.000000
RightUpLeg -22.030233 9.331565 -5.938148
RightLeg 94.835413 -0.000000 -0.000000
RightFoot -4.443318 1.737820 5.843029
RightToeBase 0.149503 -0.000000 -0.000000
387
root 4.408214 36.877943 0.167815 2.140075 17.475299 -0.633173
Spine 4.196298 4.197558 -1.499786
Head 9.436119 -9.612484 5.739125
LeftShoulder -4.460182 -9.775049 9.565167
LeftArm -0.398938 -19.406579 -46.995456
LeftForeArm 4.408513 -0.000000 94.817154
LeftHand -15.933562 -0.000000 29.685354
LeftHandThumb1 -26.253704 0.000000 33.147579
RightShoulder -10.220595 -20.563072 1.076622
RightArm 15.911428 -26.978635 58.076717
RightForeArm 178.469829 -0.000000 30.143499
RightHand 1.580891 -0.000000 -2.398874
RightHandThumb1 -24.326973 -0.000000 -32.862282
LeftUpLeg -3.418162 -5.261836 -3.041483
LeftLeg 7.791664 -0.000000 -0.000000
LeftFoot -14.108155 -3.327322 -11.857029
LeftToeBase 14.820556 -0.000000 -0.000000
RightUpLeg -22.047425 9.500276 -5.921173
RightLeg 95.084329 -0.000000 -0.000000
RightFoot -4.505287 1.801785 5.946464
RightToeBase 0.378767 -0.000000 -0.000000
388
root 4.414936 36.878776 0.166030 2.171962 18.065569 -0.597008
Spine 4.205808 4.092380 -1.396062
Head 9.466959 -9.742303 5.701760
LeftShoulder -4.403036 -9.809052 9.547711
LeftArm -0.095713 -18.996603 -47.199073
LeftForeArm 4.541428 0.000000 94.847293
LeftHand -15.882410 -0.000000 29.722719
LeftHandThumb1 -26.253704 0.000000 33.147579
RightShoulder -10.197904 -20.627712 1.038559
RightArm 15.748852 -26.915527 58.186260
RightForeArm 178.299028 -0.000000 29.949891
RightHand 1.528966 -0.000000 -2.445684
RightHandThumb1 -24.326973 -0.000000 -32.862282
LeftUpLeg -3.456583 -5.566209 -3.062983
LeftLeg 7.771493 -0.000000 -0.000000
LeftFoot -13.938490 -3.540187 -11.625684
LeftToeBase 14.561680 -0.000000 -0.000000
RightUpLeg -22.039121 9.678222 -5.910686
RightLeg 95.287916 -0.000000 -0.000000
RightFoot -4.455371 1.784001 5.915483
RightToeBase -0.213202 -0.000000 0.000000
389
root 4.421167 36.879407 0.168670 2.170506 18.615461 -0.580967
Spine 4.258221 4.048456 -1.277472
Head 9.445024 -9.888032 5.656377
LeftShoulder -4.347388 -9.824526 9.517883
LeftArm 0.242633 -18.630953 -47.404993
LeftForeArm 4.721139 -0.000000 94.899452
LeftHand -15.855553 -0.000000 29.557557
LeftHandThumb1 -26.253704 0.000000 33.147579
RightShoulder -10.234223 -20.626403 1.036730
RightArm 15.592359 -26.944523 58.220073
RightForeArm 178.268204 -0.000000 29.790971
RightHand 1.557769 -0.000000 -2.606241
RightHandThumb1 -24.326973 -0.000000 -32.862282
LeftUpLeg -3.450207 -5.794866 -3.066662
LeftLeg 7.733804 -0.000000 -0.000000
LeftFoot -13.815882 -3.795919 -11.565354
LeftToeBase 14.498676 -0.000000 -0.000000
RightUpLeg -21.992040 9.876058 -5.874474
RightLeg 95.484028 -0.000000 -0.000000
RightFoot -4.483400 1.691692 5.858869
RightToeBase 0.029393 -0.000000 -0.000000
390
root 4.425539 36.879631 0.172731 2.175630 19.201310 -0.587334
Spine 4.274179 3.935641 -1.126074
Head 9.458959 -9.966475 5.604400
LeftShoulder -4.316543 -9.798502 9.493265
LeftArm 0.561377 -18.277255 -47.612194
LeftForeArm 4.832624 -0.000000 94.926984
LeftHand -15.727981 0.000000 29.589258
LeftHandThumb1 -26.253704 0.000000 33.147579
RightShoulder -10.209357 -20.653666 0.989369
RightArm 15.420584 -26.969656 58.296369
RightForeArm 178.319354 -0.000000 29.667744
RightHand 1.665097 -0.000000 -2.588659
RightHandThumb1 -24.326973 -0.000000 -32.862282
LeftUpLeg -3.497961 -6.013377 -3.044111
LeftLeg 7.786271 -0.000000 -0.000000
LeftFoot -13.731093 -4.090277 -11.450598
LeftToeBase 14.448613 -0.000000 -0.000000
RightUpLeg -21.935057 10.019023 -5.812059
RightLeg 95.638477 -0.000000 -0.000000
RightFoot -4.458929 1.645624 5.647491
RightToeBase -0.293497 -0.000000 0.000000
391
root 4.433939 36.879594 0.173571 2.207710 19.726602 -0.544870
Spine 4.282791 3.880524 -1.047912
Head 9.452657 -10.058042 5.611646
LeftShoulder -4.275894 -9.831484 9.499110
LeftArm 0.781066 -17.897203 -47.778372
LeftForeArm 4.936031 -0.000000 95.004035
LeftHand -15.680519 -0.000000 29.487322
LeftHandThumb1 -26.253704 0.000000 33.147579
RightShoulder -10.208893 -20.725447 0.988811
RightArm 15.332235 -26.931091 58.339633
RightForeArm 178.268442 -0.000000 29.523697
RightHand 1.720786 -0.000000 -2.665611
RightHandThumb1 -24.326973 -0.000000 -32.862282
LeftUpLeg -3.519478 -6.259709 -3.075128
LeftLeg 7.754601 -0.000000 -0.000000
LeftFoot -13.607997 -4.291030 -11.357004
LeftToeBase 14.383131 -0.000000 -0.000000
RightUpLeg -21.908432 10.180954 -5.821261
RightLeg 95.785384 -0.000000 -0.000000
RightFoot -4.477499 1.736375 5.591253
RightToeBase -0.235280 -0.000000 0.000000
392
root 4.438026 36.879516 0.176733 2.242834 20.258435 -0.520751
Spine 4.272425 3.862939 -0.963248
Head 9.458128 -10.223835 5.618711
LeftShoulder -4.206620 -9.855656 9.483141
LeftArm 1.053785 -17.493560 -47.902225
LeftForeArm 5.037530 -0.000000 95.047001
LeftHand -15.731499 -0.000000 29.620435
LeftHandThumb1 -26.253704 0.000000 33.147579
RightShoulder -10.239892 -20.775461 1.009615
RightArm 15.197988 -26.817639 58.453588
RightForeArm 178.096106 -0.000000 29.373287
RightHand 1.708555 -0.000000 -2.739833
RightHandThumb1 -24.326973 -0.000000 -32.862282
LeftUpLeg -3.557059 -6.505116 -3.078042
LeftLeg 7.741181 -0.000000 -0.000000
LeftFoot -13.506505 -4.522364 -11.275701
LeftToeBase 14.367261 -0.000000 -0.000000
RightUpLeg -21.877365 10.342570 -5.793543
RightLeg 95.913756 -0.000000 -0.000000
RightFoot -4.512412 1.774241 5.460661
RightToeBase -0.338934 -0.000000 0.000000
